<svg width="1054" height="1179" viewBox="0 0 1054 1179" fill="none" xmlns="http://www.w3.org/2000/svg">
                    <g id="Frame 1" clip-path="url(#clip0)">
                        <path id="Vector" opacity="0.18" d="M324.379 1080.9C317.156 1040.03 331.947 995.711 319.113 956.733C308.527 924.663 281.614 903.881 265.817 874.808C245.587 837.567 246.116 786.663 267.136 750.009C289.367 711.294 329.05 691.899 360.277 662.588C380.637 643.456 397.624 619.777 418.665 601.681C439.707 583.585 466.976 571.296 492.191 579.701C508.41 585.096 521.699 598.272 537.215 605.777C572.238 622.737 611.931 608.837 649.808 605.44C682.873 602.501 716.098 607.83 747.219 621.063C766.931 629.456 786.437 641.82 797.92 662.139C809.997 683.519 811.457 711.256 805.878 735.959C800.298 760.662 788.383 782.804 775.127 803.26C754.583 834.957 729.065 871.948 740.126 909.414C747.133 933.142 767.028 948.129 780.263 967.961C808.927 1011 800.385 1080.53 762.541 1112.67C747.176 1125.7 727.94 1133.29 715.96 1150.42C709.331 1159.9 705.461 1171.65 698.659 1181C681.1 1205.35 649.873 1207.23 622.452 1206.98C589.17 1206.68 555.896 1206.08 522.629 1205.18C493.337 1204.4 452.898 1211.1 424.947 1200.95C383.567 1185.89 333.169 1130.46 324.379 1080.9Z" fill="#00CCFF"/>
                        <g id="mobile-hand">
                            <path id="Vector_2" d="M726.695 970.533C726.695 953.075 720.182 936.245 708.43 923.336C696.678 910.426 680.532 902.366 663.151 900.732C645.769 899.098 628.404 904.007 614.451 914.5C600.499 924.993 590.963 940.314 587.709 957.465L372.237 951.623L374.601 988.648C374.601 988.648 343.883 1059.54 505.35 1078.45V1150.14H692.034V1030.99C702.583 1024.81 711.333 1015.98 717.413 1005.38C723.494 994.77 726.694 982.758 726.695 970.533Z" fill="url(#paint0_linear)"/>
                            <path id="Vector_3" d="M382.002 990.145C382.002 990.145 352.584 1058.03 507.228 1076.15V1144.8H686.006V963.008L379.731 954.751L382.002 990.145Z" fill="#FDA57D"/>
                            <path id="Vector_4" d="M471.349 706.857C466.692 714.218 459.31 719.435 450.817 721.37C442.324 723.304 433.411 721.797 426.025 717.179L330.031 653.926C322.67 649.268 317.452 641.887 315.518 633.394C313.584 624.901 315.091 615.988 319.709 608.602C324.366 601.242 331.748 596.024 340.241 594.09C348.734 592.156 357.647 593.662 365.032 598.28L461.027 661.533C468.388 666.191 473.605 673.573 475.539 682.066C477.474 690.559 475.967 699.472 471.349 706.857Z" fill="url(#paint1_linear)"/>
                            <path id="Vector_5" d="M466.013 703.399C461.679 710.238 454.815 715.083 446.921 716.878C439.026 718.673 430.742 717.271 423.878 712.978L334.644 654.143C327.806 649.809 322.961 642.945 321.166 635.051C319.371 627.156 320.773 618.873 325.066 612.008C329.399 605.17 336.263 600.324 344.157 598.53C352.052 596.735 360.336 598.137 367.2 602.43L456.434 661.265C463.272 665.599 468.118 672.462 469.912 680.357C471.707 688.251 470.305 696.535 466.013 703.399Z" fill="#FDA57D"/>
                            <path id="Vector_6" d="M652.057 1039.95C689.134 1039.95 719.191 1009.89 719.191 972.814C719.191 935.737 689.134 905.68 652.057 905.68C614.979 905.68 584.922 935.737 584.922 972.814C584.922 1009.89 614.979 1039.95 652.057 1039.95Z" fill="#FDA57D"/>
                            <path id="Vector_7" d="M639.959 530H382.766C376.928 530 372.196 534.732 372.196 540.57V1021.83C372.196 1027.67 376.928 1032.4 382.766 1032.4H639.959C645.797 1032.4 650.529 1027.67 650.529 1021.83V540.57C650.529 534.732 645.797 530 639.959 530Z" fill="url(#paint2_linear)"/>
                            <path id="Vector_8" d="M632.703 536.792H390.043C382.267 536.792 375.963 543.095 375.963 550.871V1011.54C375.963 1019.32 382.267 1025.62 390.043 1025.62H632.703C640.478 1025.62 646.782 1019.32 646.782 1011.54V550.871C646.782 543.095 640.478 536.792 632.703 536.792Z" fill="#555555"/>
                            <path id="Vector_9" d="M579.41 549.054C578.626 554.244 576.008 558.981 572.031 562.406C568.055 565.832 562.983 567.719 557.734 567.727H464.237C458.989 567.719 453.917 565.832 449.94 562.406C445.964 558.981 443.346 554.244 442.561 549.054H393.015C390.278 549.054 387.652 550.142 385.717 552.078C383.781 554.013 382.693 556.639 382.693 559.376V1003.12C382.693 1005.86 383.781 1008.48 385.717 1010.42C387.652 1012.35 390.278 1013.44 393.015 1013.44H629.699C632.437 1013.44 635.062 1012.35 636.998 1010.42C638.934 1008.48 640.021 1005.86 640.021 1003.12V559.335C640.021 556.598 638.934 553.972 636.998 552.036C635.062 550.101 632.437 549.013 629.699 549.013L579.41 549.054Z" fill="#00CCFF"/>
                            <path id="Vector_10" d="M540.042 554.897H483.467C482.424 554.897 481.578 555.74 481.578 556.78C481.578 557.821 482.424 558.664 483.467 558.664H540.042C541.085 558.664 541.931 557.821 541.931 556.78C541.931 555.74 541.085 554.897 540.042 554.897Z" fill="#DBDBDB"/>
                            <path id="Vector_11" d="M554.751 558.664C555.999 558.664 557.012 557.652 557.012 556.404C557.012 555.155 555.999 554.143 554.751 554.143C553.503 554.143 552.49 555.155 552.49 556.404C552.49 557.652 553.503 558.664 554.751 558.664Z" fill="#DBDBDB"/>
                            <path id="Vector_12" d="M695.461 984.653C675.983 989.154 662.606 976.458 658.095 956.97L613.349 790.744C611.205 781.352 612.866 771.494 617.968 763.322C623.07 755.151 631.199 749.331 640.579 747.134C649.975 744.997 659.835 746.668 668.003 751.78C676.171 756.892 681.983 765.03 684.168 774.415L720.698 944.903C725.209 964.34 714.938 980.153 695.461 984.653Z" fill="url(#paint3_linear)"/>
                            <path id="Vector_13" d="M718.912 1122.34H463.381V1181.91H718.912V1122.34Z" fill="url(#paint4_linear)"/>
                            <path id="Vector_14" d="M712.007 1129.24H470.286V1175.86H712.007V1129.24Z" fill="#4482EB"/>
                            <path id="Vector_15" d="M434.076 885.191C429.471 892.458 422.177 897.607 413.787 899.514C405.397 901.421 396.594 899.931 389.3 895.368L324.931 853.719C317.664 849.113 312.515 841.819 310.608 833.429C308.701 825.04 310.191 816.236 314.754 808.942C319.359 801.675 326.654 796.525 335.043 794.618C343.433 792.711 352.237 794.202 359.531 798.764L423.899 840.414C431.166 845.019 436.316 852.313 438.223 860.703C440.129 869.093 438.639 877.896 434.076 885.191Z" fill="url(#paint5_linear)"/>
                            <path id="Vector_16" d="M417.933 973.361C413.287 980.695 405.927 985.892 397.462 987.816C388.996 989.74 380.113 988.236 372.753 983.632L332.879 954.544C325.546 949.898 320.349 942.539 318.425 934.073C316.5 925.608 318.005 916.725 322.609 909.365C327.255 902.031 334.615 896.835 343.08 894.91C351.546 892.986 360.429 894.49 367.788 899.094L407.662 928.213C414.987 932.859 420.178 940.212 422.102 948.67C424.026 957.128 422.527 966.004 417.933 973.361Z" fill="url(#paint6_linear)"/>
                            <path id="Vector_17" d="M450.736 797.464C446.111 804.767 438.784 809.942 430.355 811.858C421.926 813.775 413.081 812.278 405.753 807.693L324.209 754.576C316.906 749.951 311.731 742.623 309.814 734.195C307.898 725.766 309.395 716.921 313.98 709.593C318.605 702.29 325.932 697.115 334.361 695.198C342.79 693.281 351.635 694.779 358.963 699.364L440.507 752.481C447.81 757.106 452.985 764.433 454.902 772.862C456.818 781.291 455.321 790.136 450.736 797.464Z" fill="url(#paint7_linear)"/>
                            <g id="Group 1">
                                <path id="Vector_18" d="M624.806 596.061H398.754V903.657H624.806V596.061Z" fill="white"/>
                                <path id="Vector_19" d="M475.141 649.174C475.387 669.685 492.225 686.113 512.745 685.859C533.264 685.605 549.709 668.782 549.453 648.266C549.373 640.642 546.931 633.226 542.459 627.026C537.987 620.826 531.701 616.141 524.455 613.608L524.568 623.175C524.619 626.501 523.339 629.712 521.009 632.103C518.68 634.495 515.489 635.873 512.138 635.935C508.792 635.953 505.574 634.657 503.188 632.329C500.802 630 499.442 626.829 499.404 623.509L499.291 613.942C492.11 616.647 485.941 621.478 481.621 627.781C477.301 634.083 475.038 641.552 475.141 649.174Z" fill="url(#paint8_linear)"/>
                                <path id="Vector_20" d="M549.456 645.172C549.456 624.324 532.822 607.415 512.297 607.415C491.772 607.415 475.137 624.315 475.137 645.172C475.124 652.921 477.475 660.487 481.872 666.842C486.269 673.197 492.498 678.034 499.714 680.697V670.975C499.712 667.601 501.034 664.362 503.391 661.968C505.749 659.573 508.951 658.217 512.297 658.195C515.643 658.217 518.844 659.573 521.202 661.968C523.559 664.362 524.881 667.601 524.879 670.975V680.701C532.096 678.039 538.326 673.201 542.723 666.845C547.119 660.489 549.47 652.922 549.456 645.172Z" fill="#D291BC"/>
                                <path id="Vector_21" d="M512.297 654.896C520.278 654.896 526.747 648.426 526.747 640.446C526.747 632.465 520.278 625.995 512.297 625.995C504.316 625.995 497.846 632.465 497.846 640.446C497.846 648.426 504.316 654.896 512.297 654.896Z" fill="white" stroke="white" stroke-miterlimit="10"/>
                                <path id="Vector_22" d="M512.297 657.993C509.003 658.014 505.851 659.373 503.53 661.772C501.209 664.171 499.908 667.416 499.91 670.797V680.541C507.915 683.507 516.678 683.507 524.683 680.541V670.797C524.685 667.416 523.384 664.171 521.063 661.772C518.742 659.373 515.591 658.014 512.297 657.993Z" fill="white" stroke="white" stroke-miterlimit="10"/>
                                <g id="Vector_23">
                                    <path d="M497.332 639.04C496.182 636.814 495.655 634.322 495.807 631.825C495.97 629.321 497.108 626.979 498.981 625.293C501.066 623.515 503.893 622.888 506.625 622.671C509.357 622.454 512.127 622.586 514.816 622.054C517.042 621.6 519.155 620.712 521.031 619.439C522.908 618.166 524.509 616.535 525.743 614.64C525.914 616.739 526.085 618.885 525.682 620.941C525.278 622.997 524.213 625.043 522.418 626.128C524.594 625.124 524.356 627.481 523.886 628.891C524.964 630.193 527.582 630.41 527.715 632.093C527.848 633.777 527.824 635.517 527.169 637.068C526.513 638.62 527.216 641.36 525.534 641.478" fill="white"/>
                                    <path d="M497.332 639.04C496.182 636.814 495.655 634.322 495.807 631.825C495.97 629.321 497.108 626.979 498.981 625.293C501.066 623.515 503.893 622.888 506.625 622.671C509.357 622.454 512.127 622.586 514.816 622.054C517.042 621.6 519.155 620.712 521.031 619.439C522.908 618.166 524.509 616.535 525.743 614.64C525.914 616.739 526.085 618.885 525.682 620.941C525.278 622.997 524.213 625.043 522.418 626.128C524.594 625.124 524.356 627.481 523.886 628.891C524.964 630.193 527.582 630.41 527.715 632.093C527.848 633.777 527.824 635.517 527.169 637.068C526.513 638.62 527.216 641.36 525.534 641.478" stroke="white" stroke-miterlimit="10"/>
                                </g>
                                <path id="Vector_24" d="M523.651 625.995C523.651 625.995 533.137 626.855 526.388 641.478L523.651 625.995Z" fill="white"/>
                                <path id="Vector_25" d="M450.365 839.66H420.431V870.626H450.365V839.66Z" fill="url(#paint9_linear)"/>
                                <path id="Vector_26" d="M448.3 842.757H422.495V867.53H448.3V842.757Z" fill="#D291BC"/>
                                <path id="Vector_27" d="M549.456 711.667H475.137V716.828H549.456V711.667Z" fill="#D291BC"/>
                                <path id="Vector_28" d="M600.034 718.893H475.137V724.054H600.034V718.893Z" fill="#E0E0E0"/>
                                <path id="Vector_29" d="M600.034 726.118H475.137V732.311H600.034V726.118Z" fill="#E0E0E0"/>
                                <path id="Vector_30" d="M549.456 778.76H475.137V783.921H549.456V778.76Z" fill="#D291BC"/>
                                <path id="Vector_31" d="M600.034 785.986H475.137V791.147H600.034V785.986Z" fill="#E0E0E0"/>
                                <path id="Vector_32" d="M600.034 793.211H475.137V798.372H600.034V793.211Z" fill="#E0E0E0"/>
                                <path id="Vector_33" d="M549.456 844.821H475.137V849.982H549.456V844.821Z" fill="#B1A9FF"/>
                                <path id="Vector_34" d="M600.034 860.304H475.137V865.465H600.034V860.304Z" fill="#E0E0E0"/>
                            </g>
                            <path id="Vector_35" d="M430.557 882.94C426.223 889.779 419.359 894.624 411.465 896.419C403.57 898.214 395.286 896.812 388.422 892.519L327.853 853.296C321.014 848.962 316.169 842.098 314.374 834.204C312.579 826.309 313.981 818.025 318.274 811.161C322.613 804.314 329.488 799.464 337.395 797.675C345.302 795.886 353.595 797.302 360.46 801.613L421.029 840.837C427.851 845.179 432.679 852.04 434.464 859.927C436.249 867.813 434.844 876.085 430.557 882.94Z" fill="#FDA57D"/>
                            <path id="Vector_36" d="M446.401 794.677C442.067 801.515 435.204 806.361 427.309 808.156C419.415 809.95 411.131 808.548 404.266 804.256L327.884 754.504C321.045 750.17 316.2 743.306 314.405 735.412C312.61 727.517 314.012 719.234 318.305 712.369C322.639 705.525 329.506 700.676 337.406 698.881C345.305 697.086 353.594 698.491 360.46 702.79L436.843 752.543C443.678 756.88 448.519 763.745 450.31 771.639C452.101 779.533 450.695 787.815 446.401 794.677Z" fill="#FDA57D"/>
                            <path id="Vector_37" d="M679.128 778.438C675.329 761.997 658.922 751.749 642.481 755.547C626.04 759.346 615.791 775.753 619.59 792.194L660.759 970.375C664.558 986.816 680.965 997.064 697.406 993.266C713.847 989.467 724.096 973.06 720.297 956.619L679.128 778.438Z" fill="#FDA57D"/>
                            <path id="Vector_38" d="M414.712 971.194C410.379 978.032 403.515 982.878 395.621 984.672C387.726 986.467 379.442 985.065 372.578 980.772L335.419 953.657C328.58 949.323 323.735 942.459 321.94 934.565C320.145 926.67 321.547 918.386 325.84 911.522C330.174 904.684 337.037 899.838 344.932 898.044C352.826 896.249 361.11 897.651 367.974 901.943L405.133 929.059C411.972 933.393 416.817 940.257 418.612 948.151C420.407 956.046 419.005 964.329 414.712 971.194Z" fill="#FDA57D"/>
                            <g id="upload-button">
                                <path id="Vector_39" d="M402.725 934.623C401.125 934.624 399.591 935.169 398.46 936.136C397.328 937.104 396.692 938.415 396.69 939.784V975.911C396.692 977.279 397.328 978.591 398.46 979.558C399.591 980.526 401.125 981.07 402.725 981.072H618.772C620.372 981.07 621.905 980.526 623.037 979.558C624.168 978.591 624.805 977.279 624.806 975.911V939.784C624.805 938.415 624.168 937.104 623.037 936.136C621.905 935.169 620.372 934.624 618.772 934.623H402.725Z" fill="white"/>
                                <path id="UPLOAD" d="M462.731 945.126V961.983C462.731 964.784 461.852 966.999 460.094 968.628C458.348 970.256 455.958 971.071 452.922 971.071C449.934 971.071 447.561 970.28 445.803 968.698C444.045 967.116 443.149 964.942 443.114 962.176V945.126H448.387V962.018C448.387 963.694 448.786 964.919 449.583 965.692C450.391 966.454 451.504 966.835 452.922 966.835C455.887 966.835 457.393 965.276 457.44 962.159V945.126H462.731ZM472.329 961.702V970.719H467.055V945.126H477.04C478.961 945.126 480.649 945.477 482.102 946.18C483.567 946.883 484.692 947.885 485.477 949.186C486.262 950.475 486.655 951.946 486.655 953.598C486.655 956.106 485.793 958.087 484.071 959.54C482.36 960.981 479.987 961.702 476.952 961.702H472.329ZM472.329 957.43H477.04C478.434 957.43 479.495 957.102 480.221 956.446C480.959 955.79 481.329 954.852 481.329 953.633C481.329 952.38 480.959 951.366 480.221 950.592C479.483 949.819 478.463 949.421 477.163 949.397H472.329V957.43ZM495.567 966.483H506.764V970.719H490.293V945.126H495.567V966.483ZM529.704 958.503C529.704 961.022 529.258 963.231 528.368 965.13C527.477 967.028 526.2 968.493 524.536 969.524C522.883 970.555 520.985 971.071 518.84 971.071C516.719 971.071 514.827 970.561 513.163 969.542C511.499 968.522 510.209 967.069 509.295 965.182C508.381 963.284 507.918 961.104 507.907 958.643V957.378C507.907 954.858 508.358 952.643 509.26 950.733C510.174 948.811 511.458 947.34 513.11 946.321C514.774 945.29 516.672 944.774 518.805 944.774C520.938 944.774 522.831 945.29 524.483 946.321C526.147 947.34 527.43 948.811 528.333 950.733C529.247 952.643 529.704 954.852 529.704 957.36V958.503ZM524.36 957.342C524.36 954.659 523.879 952.62 522.918 951.225C521.958 949.831 520.586 949.133 518.805 949.133C517.036 949.133 515.67 949.825 514.709 951.208C513.749 952.579 513.262 954.594 513.251 957.255V958.503C513.251 961.116 513.731 963.143 514.692 964.585C515.653 966.026 517.036 966.747 518.84 966.747C520.61 966.747 521.969 966.055 522.918 964.672C523.868 963.278 524.348 961.251 524.36 958.59V957.342ZM547.598 965.446H538.352L536.594 970.719H530.987L540.514 945.126H545.401L554.981 970.719H549.374L547.598 965.446ZM539.776 961.174H546.174L542.958 951.594L539.776 961.174ZM557.372 970.719V945.126H565.247C567.497 945.126 569.506 945.635 571.276 946.655C573.057 947.663 574.446 949.104 575.442 950.979C576.438 952.842 576.936 954.964 576.936 957.342V958.52C576.936 960.899 576.444 963.014 575.459 964.866C574.487 966.717 573.11 968.153 571.329 969.172C569.547 970.192 567.538 970.708 565.299 970.719H557.372ZM562.645 949.397V966.483H565.194C567.256 966.483 568.833 965.809 569.922 964.462C571.012 963.114 571.569 961.186 571.592 958.678V957.325C571.592 954.723 571.053 952.755 569.975 951.419C568.897 950.071 567.321 949.397 565.247 949.397H562.645Z" fill="#6F4A8E"/>
                            </g>
                        </g>
                        <g id="up-arrow">
                            <g id="Group">
                                <path id="Vector_40" d="M452.551 517.222L452.523 517.355V460.477L469.839 478.357C470.684 479.233 471.83 479.713 473.032 479.713C474.233 479.713 475.371 479.233 476.218 478.357L478.908 475.575C479.753 474.7 480.221 473.534 480.221 472.291C480.221 471.047 479.757 469.881 478.911 469.006L449.297 438.355C448.448 437.477 447.317 436.997 446.115 437C444.905 436.997 443.774 437.477 442.927 438.355L413.309 469.006C412.465 469.881 412 471.046 412 472.291C412 473.534 412.465 474.7 413.309 475.575L415.999 478.357C416.843 479.233 417.97 479.713 419.172 479.713C420.374 479.713 421.442 479.233 422.286 478.357L439.699 460.275V517.286C439.699 519.847 441.832 522 444.306 522H448.111C450.585 522 452.551 519.784 452.551 517.222Z" fill="#6F4A8E"/>
                            </g>
                            <g id="Group_2">
                                <path id="Vector_41" d="M582.551 517.222L582.523 517.355V460.477L599.839 478.357C600.684 479.233 601.83 479.713 603.032 479.713C604.233 479.713 605.371 479.233 606.218 478.357L608.908 475.575C609.753 474.7 610.221 473.534 610.221 472.291C610.221 471.047 609.757 469.881 608.911 469.006L579.297 438.355C578.448 437.477 577.317 436.997 576.115 437C574.905 436.997 573.774 437.477 572.927 438.355L543.309 469.006C542.465 469.881 542 471.046 542 472.291C542 473.534 542.465 474.7 543.309 475.575L545.999 478.357C546.843 479.233 547.97 479.713 549.172 479.713C550.374 479.713 551.442 479.233 552.286 478.357L569.699 460.275V517.286C569.699 519.847 571.832 522 574.306 522H578.111C580.585 522 582.551 519.784 582.551 517.222Z" fill="#6F4A8E"/>
                            </g>
                        </g>
                        <g id="cloud">
                            <path id="Vector_42" fill-rule="evenodd" clip-rule="evenodd" d="M560.685 326.476C591.653 341.205 626.785 334.663 652.694 309.356C675.242 324.009 702.786 321.019 722.804 301.73C742.822 282.441 751.459 250.592 744.765 220.687C738.072 190.782 717.345 168.54 692.021 164.166C682.737 116.019 644.737 84.3195 604.299 91.0481C589.278 39.9851 549.088 6.19229 504.363 7.01468C459.639 7.83707 420.312 43.0878 406.586 94.6741C368.123 84.2821 327.994 99.8702 301.715 135.495C275.435 171.119 267.107 221.135 279.908 266.33C295.083 303.786 322.689 331.672 355.816 343.036C388.943 354.4 424.507 348.195 453.655 325.953C484.746 356.718 529.347 356.942 560.624 326.476H560.685Z" fill="#66E0FF" stroke="#007A99" stroke-width="0.2"/>
                            <path id="Vector_43" fill-rule="evenodd" clip-rule="evenodd" d="M288.976 248.162C279.969 205.809 291.752 160.989 319.265 132.691C346.779 104.431 385.211 97.7019 418.214 115.383C423.982 62.7502 460.286 22.9016 504.055 21.1073C547.823 19.313 586.255 56.0963 594.953 108.131C614.231 101.515 634.959 105.589 651.491 119.346C668.024 133.065 678.665 155.008 680.547 179.193C702.971 178.035 723.359 194.819 730.731 220.5C738.103 246.181 730.7 274.703 712.533 290.627C694.365 306.552 669.69 306.178 651.892 289.656C628.389 321.916 589.031 328.719 559.02 305.73C545.109 323.075 526.078 332.943 506.152 333.13C486.196 333.317 467.041 323.822 452.914 306.776C425.987 331.224 391.102 338.85 358.839 327.299C326.575 315.748 300.697 286.441 289.007 248.162H288.976Z" fill="#B3F0FF"/>
                            <path id="Vector_44" d="M356.926 218.407V184.689H367.444C369.295 184.689 370.714 184.801 371.67 185.025C373.027 185.287 374.169 185.81 375.125 186.595C376.05 187.38 376.79 188.464 377.345 189.847C377.901 191.23 378.178 192.763 378.178 194.445C378.178 197.286 377.438 199.716 375.927 201.697C374.415 203.678 371.701 204.688 367.753 204.688H360.628V218.444H356.926V218.407ZM360.628 200.688H367.815C370.19 200.688 371.886 200.165 372.873 199.081C373.86 197.996 374.384 196.501 374.384 194.557C374.384 193.137 374.107 191.941 373.49 190.931C372.904 189.922 372.133 189.249 371.177 188.95C370.56 188.763 369.418 188.651 367.753 188.651H360.628V200.725V200.688Z" fill="#4AC4E3"/>
                            <path id="1" d="M384.285 218.407V184.689H396.623C399.091 184.689 401.003 184.988 402.268 185.586C403.563 186.184 404.581 187.268 405.352 188.801C406.123 190.333 406.494 192.015 406.494 193.884C406.494 196.277 405.846 198.295 404.581 199.94C403.317 201.585 401.343 202.632 398.659 203.08C399.646 203.641 400.386 204.202 400.88 204.762C401.959 205.959 402.977 207.454 403.933 209.248L408.745 218.444H404.149L400.479 211.416C399.399 209.398 398.536 207.828 397.826 206.744C397.117 205.66 396.5 204.912 395.945 204.501C395.39 204.09 394.834 203.791 394.279 203.604C393.878 203.492 393.2 203.454 392.243 203.454H387.987V218.444H384.285V218.407ZM387.987 199.566H395.883C397.579 199.566 398.875 199.342 399.831 198.931C400.787 198.52 401.497 197.847 401.99 196.912C402.484 195.978 402.731 194.969 402.731 193.884C402.731 192.277 402.268 190.969 401.312 189.959C400.355 188.913 398.844 188.427 396.808 188.427H388.018V199.604L387.987 199.566Z" fill="#4AC4E3"/>
                            <path id="2" d="M414.266 218.407V184.689H417.968V218.407H414.266Z" fill="#4AC4E3"/>
                            <path id="3" d="M425.771 218.407V184.689H429.565L444.155 211.155V184.689H447.702V218.407H443.908L429.319 191.941V218.407H425.771Z" fill="#4AC4E3"/>
                            <path id="4" d="M462.322 218.407V188.651H453.161V184.689H475.184V188.651H466.023V218.407H462.322Z" fill="#4AC4E3"/>
                            <path id="5" d="M480.274 218.407V184.689H485.795L492.365 208.575C492.981 210.781 493.413 212.463 493.691 213.585C493.999 212.351 494.493 210.557 495.171 208.164L501.865 184.726H506.8V218.444H503.253V190.221L495.141 218.444H491.809L483.79 189.698V218.444H480.243L480.274 218.407Z" fill="#4AC4E3"/>
                            <path id="6" d="M521.945 218.407V204.127L511.211 184.689H515.652L521.143 194.894C522.16 196.8 523.117 198.669 523.98 200.576C524.844 198.819 525.862 196.838 527.065 194.632L532.463 184.689H536.75L525.646 204.127V218.407H521.945Z" fill="#4AC4E3"/>
                            <path id="7" d="M561.21 206.594L564.911 207.715C564.14 211.379 562.752 214.182 560.747 216.089C558.742 217.995 556.305 218.967 553.406 218.967C550.414 218.967 547.977 218.22 546.096 216.762C544.214 215.304 542.796 213.136 541.808 210.332C540.821 207.529 540.328 204.501 540.328 201.286C540.328 197.772 540.883 194.707 541.994 192.09C543.104 189.473 544.677 187.492 546.713 186.146C548.748 184.801 551 184.128 553.437 184.128C556.213 184.128 558.557 184.988 560.439 186.707C562.351 188.427 563.646 190.819 564.418 193.959L560.809 195.006C560.161 192.539 559.236 190.782 558.002 189.66C556.768 188.539 555.226 187.978 553.375 187.978C551.247 187.978 549.458 188.614 548.039 189.847C546.62 191.081 545.602 192.763 545.016 194.856C544.43 196.95 544.153 199.118 544.153 201.323C544.153 204.202 544.492 206.706 545.171 208.837C545.849 210.968 546.929 212.575 548.378 213.622C549.828 214.668 551.401 215.192 553.098 215.192C555.164 215.192 556.891 214.482 558.31 213.024C559.729 211.566 560.685 209.435 561.21 206.594Z" fill="#4AC4E3"/>
                            <path id="8" d="M569.692 201.996C569.692 196.389 570.926 192.015 573.424 188.875C575.892 185.698 579.099 184.128 583.017 184.128C585.577 184.128 587.89 184.875 589.957 186.371C592.023 187.866 593.596 189.922 594.676 192.576C595.755 195.23 596.311 198.258 596.311 201.622C596.311 205.024 595.755 208.089 594.614 210.781C593.473 213.472 591.869 215.528 589.772 216.911C587.674 218.294 585.422 219.005 583.017 219.005C580.395 219.005 578.051 218.22 575.984 216.687C573.917 215.154 572.344 213.061 571.296 210.407C570.247 207.753 569.692 204.949 569.692 201.996ZM573.486 202.071C573.486 206.145 574.38 209.323 576.2 211.641C577.989 213.958 580.271 215.154 582.986 215.154C585.762 215.154 588.044 213.958 589.833 211.603C591.622 209.248 592.517 205.921 592.517 201.585C592.517 198.856 592.147 196.464 591.375 194.408C590.604 192.352 589.494 190.782 588.013 189.66C586.533 188.539 584.898 187.978 583.047 187.978C580.457 187.978 578.205 189.062 576.323 191.23C574.442 193.398 573.516 197.024 573.516 202.071H573.486Z" fill="#4AC4E3"/>
                            <path id="9" d="M602.418 218.407V184.689H612.936C614.786 184.689 616.205 184.801 617.161 185.025C618.519 185.287 619.66 185.81 620.616 186.595C621.541 187.38 622.282 188.464 622.837 189.847C623.392 191.23 623.67 192.763 623.67 194.445C623.67 197.286 622.929 199.716 621.418 201.697C619.907 203.678 617.192 204.688 613.244 204.688H606.119V218.444H602.418V218.407ZM606.119 200.688H613.306C615.681 200.688 617.377 200.165 618.364 199.081C619.351 197.996 619.876 196.501 619.876 194.557C619.876 193.137 619.598 191.941 618.981 190.931C618.395 189.922 617.624 189.249 616.668 188.95C616.051 188.763 614.91 188.651 613.244 188.651H606.119V200.725V200.688Z" fill="#4AC4E3"/>
                            <path id="10" d="M637.55 218.407V204.127L626.816 184.689H631.257L636.748 194.894C637.766 196.8 638.722 198.669 639.585 200.576C640.449 198.819 641.467 196.838 642.67 194.632L648.068 184.689H652.355L641.251 204.127V218.407H637.55Z" fill="#4AC4E3"/>
                        </g>
                    </g>
                    <defs>
                        <linearGradient id="paint0_linear" x1="140777" y1="197913" x2="140777" y2="137508" gradientUnits="userSpaceOnUse">
                            <stop stop-color="#808080" stop-opacity="0.25"/>
                            <stop offset="0.54" stop-color="#808080" stop-opacity="0.12"/>
                            <stop offset="1" stop-color="#808080" stop-opacity="0.1"/>
                        </linearGradient>
                        <linearGradient id="paint1_linear" x1="40243.2" y1="48863" x2="40243.2" y2="32760.2" gradientUnits="userSpaceOnUse">
                            <stop stop-color="#808080" stop-opacity="0.25"/>
                            <stop offset="0.54" stop-color="#808080" stop-opacity="0.12"/>
                            <stop offset="1" stop-color="#808080" stop-opacity="0.1"/>
                        </linearGradient>
                        <linearGradient id="paint2_linear" x1="100184" y1="339545" x2="100184" y2="95010.5" gradientUnits="userSpaceOnUse">
                            <stop stop-color="#808080" stop-opacity="0.25"/>
                            <stop offset="0.54" stop-color="#808080" stop-opacity="0.12"/>
                            <stop offset="1" stop-color="#808080" stop-opacity="0.1"/>
                        </linearGradient>
                        <linearGradient id="paint3_linear" x1="56369.3" y1="151422" x2="56369.3" y2="95922.7" gradientUnits="userSpaceOnUse">
                            <stop stop-color="#808080" stop-opacity="0.25"/>
                            <stop offset="0.54" stop-color="#808080" stop-opacity="0.12"/>
                            <stop offset="1" stop-color="#808080" stop-opacity="0.1"/>
                        </linearGradient>
                        <linearGradient id="paint4_linear" x1="111835" y1="49874" x2="111835" y2="46436.3" gradientUnits="userSpaceOnUse">
                            <stop stop-color="#808080" stop-opacity="0.25"/>
                            <stop offset="0.54" stop-color="#808080" stop-opacity="0.12"/>
                            <stop offset="1" stop-color="#808080" stop-opacity="0.1"/>
                            </linearGradient>
                        <linearGradient id="paint5_linear" x1="29584.1" y1="59057" x2="29584.1" y2="48064.6" gradientUnits="userSpaceOnUse">
                            <stop stop-color="#808080" stop-opacity="0.25"/>
                            <stop offset="0.54" stop-color="#808080" stop-opacity="0.12"/>
                            <stop offset="1" stop-color="#808080" stop-opacity="0.1"/>
                        </linearGradient>
                        <linearGradient id="paint6_linear" x1="23749.9" y1="60695" x2="23749.9" y2="52035" gradientUnits="userSpaceOnUse">
                            <stop stop-color="#808080" stop-opacity="0.25"/>
                            <stop offset="0.54" stop-color="#808080" stop-opacity="0.12"/>
                            <stop offset="1" stop-color="#808080" stop-opacity="0.1"/>
                        </linearGradient>
                        <linearGradient id="paint7_linear" x1="34668.4" y1="55352.3" x2="34668.4" y2="41795.1" gradientUnits="userSpaceOnUse">
                            <stop stop-color="#808080" stop-opacity="0.25"/>
                            <stop offset="0.54" stop-color="#808080" stop-opacity="0.12"/>
                            <stop offset="1" stop-color="#808080" stop-opacity="0.1"/>
                        </linearGradient>
                        <linearGradient id="paint8_linear" x1="514.665" y1="685.26" x2="510.934" y2="612.754" gradientUnits="userSpaceOnUse">
                            <stop stop-opacity="0.12"/>
                            <stop offset="0.55" stop-opacity="0.09"/>
                            <stop offset="1" stop-opacity="0.02"/>
                        </linearGradient>
                        <linearGradient id="paint9_linear" x1="11082" y1="20639.3" x2="11082" y2="18614.2" gradientUnits="userSpaceOnUse">
                            <stop stop-color="#808080" stop-opacity="0.25"/>
                            <stop offset="0.54" stop-color="#808080" stop-opacity="0.12"/>
                            <stop offset="1" stop-color="#808080" stop-opacity="0.1"/>
                        </linearGradient>
                        <clipPath id="clip0">
                            <rect width="1054" height="1179" fill="white"/>
                        </clipPath>
                    </defs>
                </svg>